<svg width="16" height="16" viewBox="0 0 16 16" fill="none" xmlns="http://www.w3.org/2000/svg">
<path d="M8.00004 14.6668C4.31814 14.6668 1.33337 11.682 1.33337 8.00016C1.33337 4.31826 4.31814 1.3335 8.00004 1.3335C11.6819 1.3335 14.6667 4.31826 14.6667 8.00016C14.6667 11.682 11.6819 14.6668 8.00004 14.6668ZM8.00004 6.3335C8.55231 6.3335 9.00004 5.88578 9.00004 5.3335C9.00004 4.78121 8.55231 4.3335 8.00004 4.3335C7.44777 4.3335 7.00004 4.78121 7.00004 5.3335C7.00004 5.88578 7.44777 6.3335 8.00004 6.3335ZM9.33337 10.0002H8.66671V7.00016H6.66671V8.3335H7.33337V10.0002H6.66671V11.3335H9.33337V10.0002Z" fill="#99A0AE"/>
</svg>
